<mxfile host="app.diagrams.net" modified="2022-03-06T04:41:11.295Z" agent="5.0 (Windows NT 10.0; Win64; x64) AppleWebKit/537.36 (KHTML, like Gecko) Chrome/98.0.4758.102 Safari/537.36" etag="CiNEJGKYbIoSxj-8ezlt" version="16.6.6" type="github">
  <diagram id="lZJYhbxA9fYqfcykRYKo" name="Page-1">
    <mxGraphModel dx="1038" dy="500" grid="1" gridSize="10" guides="1" tooltips="1" connect="1" arrows="1" fold="1" page="1" pageScale="1" pageWidth="827" pageHeight="1169" math="0" shadow="0">
      <root>
        <mxCell id="0" />
        <mxCell id="1" parent="0" />
        <mxCell id="jeKVrq6Y83xvshS6P52J-1" value="&lt;p style=&quot;margin: 0px ; margin-top: 4px ; text-align: center&quot;&gt;&lt;b&gt;Library Management System&lt;/b&gt;&lt;/p&gt;&lt;hr size=&quot;1&quot;&gt;&lt;div style=&quot;height: 2px&quot;&gt;&lt;/div&gt;" style="verticalAlign=top;align=left;overflow=fill;fontSize=12;fontFamily=Helvetica;html=1;" vertex="1" parent="1">
          <mxGeometry x="190" y="20" width="470" height="900" as="geometry" />
        </mxCell>
        <mxCell id="jeKVrq6Y83xvshS6P52J-23" value="" style="endArrow=none;html=1;rounded=0;exitX=1;exitY=0.5;exitDx=0;exitDy=0;entryX=0.5;entryY=0.5;entryDx=0;entryDy=0;entryPerimeter=0;" edge="1" parent="1" source="jeKVrq6Y83xvshS6P52J-8" target="jeKVrq6Y83xvshS6P52J-3">
          <mxGeometry width="50" height="50" relative="1" as="geometry">
            <mxPoint x="660" y="320" as="sourcePoint" />
            <mxPoint x="730" y="200" as="targetPoint" />
          </mxGeometry>
        </mxCell>
        <mxCell id="jeKVrq6Y83xvshS6P52J-2" value="Customer" style="shape=umlActor;verticalLabelPosition=bottom;verticalAlign=top;html=1;" vertex="1" parent="1">
          <mxGeometry x="40" y="190" width="70" height="270" as="geometry" />
        </mxCell>
        <mxCell id="jeKVrq6Y83xvshS6P52J-3" value="Librarian" style="shape=umlActor;verticalLabelPosition=bottom;verticalAlign=top;html=1;" vertex="1" parent="1">
          <mxGeometry x="710" y="170" width="70" height="260" as="geometry" />
        </mxCell>
        <mxCell id="jeKVrq6Y83xvshS6P52J-7" value="Search" style="ellipse;whiteSpace=wrap;html=1;" vertex="1" parent="1">
          <mxGeometry x="250" y="60" width="140" height="70" as="geometry" />
        </mxCell>
        <mxCell id="jeKVrq6Y83xvshS6P52J-8" value="Borrow" style="ellipse;whiteSpace=wrap;html=1;" vertex="1" parent="1">
          <mxGeometry x="290" y="310" width="140" height="70" as="geometry" />
        </mxCell>
        <mxCell id="jeKVrq6Y83xvshS6P52J-9" value="Return" style="ellipse;whiteSpace=wrap;html=1;" vertex="1" parent="1">
          <mxGeometry x="274" y="610" width="140" height="70" as="geometry" />
        </mxCell>
        <mxCell id="jeKVrq6Y83xvshS6P52J-10" value="Verify user" style="ellipse;whiteSpace=wrap;html=1;" vertex="1" parent="1">
          <mxGeometry x="414" y="460" width="140" height="70" as="geometry" />
        </mxCell>
        <mxCell id="jeKVrq6Y83xvshS6P52J-22" value="" style="endArrow=none;html=1;rounded=0;exitX=1;exitY=0.5;exitDx=0;exitDy=0;entryX=0.263;entryY=0.058;entryDx=0;entryDy=0;entryPerimeter=0;" edge="1" parent="1" source="jeKVrq6Y83xvshS6P52J-7" target="jeKVrq6Y83xvshS6P52J-3">
          <mxGeometry width="50" height="50" relative="1" as="geometry">
            <mxPoint x="660" y="310" as="sourcePoint" />
            <mxPoint x="700" y="180" as="targetPoint" />
          </mxGeometry>
        </mxCell>
        <mxCell id="jeKVrq6Y83xvshS6P52J-13" value="Request Failed" style="ellipse;whiteSpace=wrap;html=1;" vertex="1" parent="1">
          <mxGeometry x="480" y="360" width="140" height="70" as="geometry" />
        </mxCell>
        <mxCell id="jeKVrq6Y83xvshS6P52J-11" value="Check Availability" style="ellipse;whiteSpace=wrap;html=1;" vertex="1" parent="1">
          <mxGeometry x="440" y="140" width="140" height="70" as="geometry" />
        </mxCell>
        <mxCell id="jeKVrq6Y83xvshS6P52J-14" value="Verify Book Details" style="ellipse;whiteSpace=wrap;html=1;" vertex="1" parent="1">
          <mxGeometry x="440" y="810" width="140" height="70" as="geometry" />
        </mxCell>
        <mxCell id="jeKVrq6Y83xvshS6P52J-19" value="" style="endArrow=none;html=1;rounded=0;entryX=0;entryY=0.5;entryDx=0;entryDy=0;exitX=0.5;exitY=0.5;exitDx=0;exitDy=0;exitPerimeter=0;" edge="1" parent="1" source="jeKVrq6Y83xvshS6P52J-2" target="jeKVrq6Y83xvshS6P52J-7">
          <mxGeometry width="50" height="50" relative="1" as="geometry">
            <mxPoint x="110" y="220" as="sourcePoint" />
            <mxPoint x="450" y="60" as="targetPoint" />
            <Array as="points" />
          </mxGeometry>
        </mxCell>
        <mxCell id="jeKVrq6Y83xvshS6P52J-12" value="Check Limit" style="ellipse;whiteSpace=wrap;html=1;" vertex="1" parent="1">
          <mxGeometry x="450" y="240" width="140" height="70" as="geometry" />
        </mxCell>
        <mxCell id="jeKVrq6Y83xvshS6P52J-20" value="" style="endArrow=none;html=1;rounded=0;entryX=0;entryY=0.5;entryDx=0;entryDy=0;exitX=0.5;exitY=0.5;exitDx=0;exitDy=0;exitPerimeter=0;" edge="1" parent="1" source="jeKVrq6Y83xvshS6P52J-2" target="jeKVrq6Y83xvshS6P52J-8">
          <mxGeometry width="50" height="50" relative="1" as="geometry">
            <mxPoint x="80" y="330" as="sourcePoint" />
            <mxPoint x="710" y="160" as="targetPoint" />
          </mxGeometry>
        </mxCell>
        <mxCell id="jeKVrq6Y83xvshS6P52J-21" value="" style="endArrow=none;html=1;rounded=0;entryX=0;entryY=0.5;entryDx=0;entryDy=0;exitX=0.5;exitY=0.5;exitDx=0;exitDy=0;exitPerimeter=0;" edge="1" parent="1" source="jeKVrq6Y83xvshS6P52J-2" target="jeKVrq6Y83xvshS6P52J-9">
          <mxGeometry width="50" height="50" relative="1" as="geometry">
            <mxPoint x="110" y="220" as="sourcePoint" />
            <mxPoint x="710" y="260" as="targetPoint" />
          </mxGeometry>
        </mxCell>
        <mxCell id="jeKVrq6Y83xvshS6P52J-24" value="" style="endArrow=none;html=1;rounded=0;exitX=1;exitY=0.5;exitDx=0;exitDy=0;entryX=0;entryY=1;entryDx=0;entryDy=0;entryPerimeter=0;" edge="1" parent="1" source="jeKVrq6Y83xvshS6P52J-9" target="jeKVrq6Y83xvshS6P52J-3">
          <mxGeometry width="50" height="50" relative="1" as="geometry">
            <mxPoint x="540" y="520" as="sourcePoint" />
            <mxPoint x="590" y="470" as="targetPoint" />
          </mxGeometry>
        </mxCell>
        <mxCell id="jeKVrq6Y83xvshS6P52J-25" value="" style="endArrow=none;html=1;rounded=0;exitX=0.566;exitY=0.011;exitDx=0;exitDy=0;exitPerimeter=0;entryX=0;entryY=0.5;entryDx=0;entryDy=0;" edge="1" parent="1" source="jeKVrq6Y83xvshS6P52J-8" target="jeKVrq6Y83xvshS6P52J-11">
          <mxGeometry width="50" height="50" relative="1" as="geometry">
            <mxPoint x="540" y="320" as="sourcePoint" />
            <mxPoint x="590" y="270" as="targetPoint" />
          </mxGeometry>
        </mxCell>
        <mxCell id="jeKVrq6Y83xvshS6P52J-26" value="&amp;lt;&amp;lt;Include&amp;gt;&amp;gt;" style="edgeLabel;html=1;align=center;verticalAlign=middle;resizable=0;points=[];" vertex="1" connectable="0" parent="jeKVrq6Y83xvshS6P52J-25">
          <mxGeometry x="-0.436" y="-1" relative="1" as="geometry">
            <mxPoint x="10" y="-23" as="offset" />
          </mxGeometry>
        </mxCell>
        <mxCell id="jeKVrq6Y83xvshS6P52J-32" value="" style="endArrow=none;html=1;rounded=0;exitX=1;exitY=0;exitDx=0;exitDy=0;entryX=0;entryY=0.5;entryDx=0;entryDy=0;" edge="1" parent="1" source="jeKVrq6Y83xvshS6P52J-8" target="jeKVrq6Y83xvshS6P52J-12">
          <mxGeometry width="50" height="50" relative="1" as="geometry">
            <mxPoint x="414" y="342.89" as="sourcePoint" />
            <mxPoint x="484.76" y="207.12" as="targetPoint" />
          </mxGeometry>
        </mxCell>
        <mxCell id="jeKVrq6Y83xvshS6P52J-33" value="&amp;lt;&amp;lt;Include&amp;gt;&amp;gt;" style="edgeLabel;html=1;align=center;verticalAlign=middle;resizable=0;points=[];" vertex="1" connectable="0" parent="jeKVrq6Y83xvshS6P52J-32">
          <mxGeometry x="-0.436" y="-1" relative="1" as="geometry">
            <mxPoint x="10" y="-23" as="offset" />
          </mxGeometry>
        </mxCell>
        <mxCell id="jeKVrq6Y83xvshS6P52J-34" value="" style="endArrow=none;html=1;rounded=0;exitX=0.5;exitY=1;exitDx=0;exitDy=0;entryX=0;entryY=0.5;entryDx=0;entryDy=0;" edge="1" parent="1" source="jeKVrq6Y83xvshS6P52J-8" target="jeKVrq6Y83xvshS6P52J-10">
          <mxGeometry width="50" height="50" relative="1" as="geometry">
            <mxPoint x="389.24" y="330.77" as="sourcePoint" />
            <mxPoint x="460" y="195" as="targetPoint" />
          </mxGeometry>
        </mxCell>
        <mxCell id="jeKVrq6Y83xvshS6P52J-35" value="&amp;lt;&amp;lt;Include&amp;gt;&amp;gt;" style="edgeLabel;html=1;align=center;verticalAlign=middle;resizable=0;points=[];" vertex="1" connectable="0" parent="jeKVrq6Y83xvshS6P52J-34">
          <mxGeometry x="-0.436" y="-1" relative="1" as="geometry">
            <mxPoint x="14" y="24" as="offset" />
          </mxGeometry>
        </mxCell>
        <mxCell id="jeKVrq6Y83xvshS6P52J-37" value="Request Failed" style="ellipse;whiteSpace=wrap;html=1;" vertex="1" parent="1">
          <mxGeometry x="480" y="680" width="140" height="70" as="geometry" />
        </mxCell>
        <mxCell id="jeKVrq6Y83xvshS6P52J-39" value="" style="endArrow=none;html=1;rounded=0;exitX=1;exitY=1;exitDx=0;exitDy=0;entryX=0.02;entryY=0.714;entryDx=0;entryDy=0;entryPerimeter=0;" edge="1" parent="1" source="jeKVrq6Y83xvshS6P52J-8" target="jeKVrq6Y83xvshS6P52J-13">
          <mxGeometry width="50" height="50" relative="1" as="geometry">
            <mxPoint x="370" y="390" as="sourcePoint" />
            <mxPoint x="424" y="505" as="targetPoint" />
          </mxGeometry>
        </mxCell>
        <mxCell id="jeKVrq6Y83xvshS6P52J-40" value="&amp;lt;&amp;lt;Extend&amp;gt;&amp;gt;" style="edgeLabel;html=1;align=center;verticalAlign=middle;resizable=0;points=[];" vertex="1" connectable="0" parent="jeKVrq6Y83xvshS6P52J-39">
          <mxGeometry x="-0.436" y="-1" relative="1" as="geometry">
            <mxPoint x="6" y="8" as="offset" />
          </mxGeometry>
        </mxCell>
        <mxCell id="jeKVrq6Y83xvshS6P52J-41" value="" style="endArrow=none;html=1;rounded=0;exitX=0.5;exitY=0;exitDx=0;exitDy=0;entryX=0;entryY=0.5;entryDx=0;entryDy=0;" edge="1" parent="1" source="jeKVrq6Y83xvshS6P52J-9" target="jeKVrq6Y83xvshS6P52J-10">
          <mxGeometry width="50" height="50" relative="1" as="geometry">
            <mxPoint x="380" y="400" as="sourcePoint" />
            <mxPoint x="434" y="515" as="targetPoint" />
          </mxGeometry>
        </mxCell>
        <mxCell id="jeKVrq6Y83xvshS6P52J-42" value="&amp;lt;&amp;lt;Include&amp;gt;&amp;gt;" style="edgeLabel;html=1;align=center;verticalAlign=middle;resizable=0;points=[];" vertex="1" connectable="0" parent="jeKVrq6Y83xvshS6P52J-41">
          <mxGeometry x="-0.436" y="-1" relative="1" as="geometry">
            <mxPoint x="14" y="24" as="offset" />
          </mxGeometry>
        </mxCell>
        <mxCell id="jeKVrq6Y83xvshS6P52J-43" value="" style="endArrow=none;html=1;rounded=0;exitX=0.5;exitY=1;exitDx=0;exitDy=0;entryX=0;entryY=0.5;entryDx=0;entryDy=0;" edge="1" parent="1" source="jeKVrq6Y83xvshS6P52J-9" target="jeKVrq6Y83xvshS6P52J-14">
          <mxGeometry width="50" height="50" relative="1" as="geometry">
            <mxPoint x="390" y="410" as="sourcePoint" />
            <mxPoint x="444" y="525" as="targetPoint" />
          </mxGeometry>
        </mxCell>
        <mxCell id="jeKVrq6Y83xvshS6P52J-44" value="&amp;lt;&amp;lt;Include&amp;gt;&amp;gt;" style="edgeLabel;html=1;align=center;verticalAlign=middle;resizable=0;points=[];" vertex="1" connectable="0" parent="jeKVrq6Y83xvshS6P52J-43">
          <mxGeometry x="-0.436" y="-1" relative="1" as="geometry">
            <mxPoint x="14" y="24" as="offset" />
          </mxGeometry>
        </mxCell>
        <mxCell id="jeKVrq6Y83xvshS6P52J-45" value="" style="endArrow=none;html=1;rounded=0;exitX=1;exitY=1;exitDx=0;exitDy=0;entryX=0;entryY=0.5;entryDx=0;entryDy=0;" edge="1" parent="1" source="jeKVrq6Y83xvshS6P52J-9" target="jeKVrq6Y83xvshS6P52J-37">
          <mxGeometry width="50" height="50" relative="1" as="geometry">
            <mxPoint x="400" y="420" as="sourcePoint" />
            <mxPoint x="454" y="535" as="targetPoint" />
          </mxGeometry>
        </mxCell>
        <mxCell id="jeKVrq6Y83xvshS6P52J-46" value="&amp;lt;&amp;lt;Extend&amp;gt;&amp;gt;" style="edgeLabel;html=1;align=center;verticalAlign=middle;resizable=0;points=[];" vertex="1" connectable="0" parent="jeKVrq6Y83xvshS6P52J-45">
          <mxGeometry x="-0.436" y="-1" relative="1" as="geometry">
            <mxPoint x="14" y="24" as="offset" />
          </mxGeometry>
        </mxCell>
      </root>
    </mxGraphModel>
  </diagram>
</mxfile>
